PathFileType	4	(X/Y/Z)	Run_300 02
DataRate	CameraRate	NumFrames	NumMarkers	Units	OrigDataRate	OrigDataStartFrame	OrigNumFrames
100	100	4	42	mm	100	193	128
Frame#	Time	LASI			RASI			LPSI			RPSI			RTH1			RTH2			RTH3			LTH1			LTH2			LTH3			RTB1			RTB2			RTB3			LTB1			LTB2			LTB3			RCAL			RTOE			RMT5			LCAL			LTOE			LMT5			LACR			RACR			CLAV			C7			RUA1			RUA2			RUA3			RLEL			RMEL			LUA1			LUA2			LUA3			LLEL			LMEL			RFAsuperior			RFAradius			RFAulna			LFAsuperior			LFAradius			LFAulna			
		X1	Y1	Z1	X2	Y2	Z2	X3	Y3	Z3	X4	Y4	Z4	X5	Y5	Z5	X6	Y6	Z6	X7	Y7	Z7	X8	Y8	Z8	X9	Y9	Z9	X10	Y10	Z10	X11	Y11	Z11	X12	Y12	Z12	X13	Y13	Z13	X14	Y14	Z14	X15	Y15	Z15	X16	Y16	Z16	X17	Y17	Z17	X18	Y18	Z18	X19	Y19	Z19	X20	Y20	Z20	X21	Y21	Z21	X22	Y22	Z22	X23	Y23	Z23	X24	Y24	Z24	X25	Y25	Z25	X26	Y26	Z26	X27	Y27	Z27	X28	Y28	Z28	X29	Y29	Z29	X30	Y30	Z30	X31	Y31	Z31	X32	Y32	Z32	X33	Y33	Z33	X34	Y34	Z34	X35	Y35	Z35	X36	Y36	Z36	X37	Y37	Z37	X38	Y38	Z38	X39	Y39	Z39	X40	Y40	Z40	X41	Y41	Z41	X42	Y42	Z42	

190	2.32	906.598758	962.9230679999999	-435.011181	898.891813	954.485011	-195.708065	739.1494719999999	998.709355	-369.224848	732.259107	992.4104579999999	-269.694716	839.61287	713.579044	-135.96968	902.1176390000001	630.800416	-139.185438	845.791548	539.90811	-152.189493	916.269991	773.0875559999999	-478.342361	999.206198	699.350633	-449.082041	981.337507	576.419831	-426.301826	741.541338	402.238144	-225.666221	657.161754	415.959639	-170.155658	554.565568	379.750335	-233.637996	1024.189615	389.30907	-333.926751	965.396961	310.392289	-396.893192	960.0571629999999	206.100262	-314.302892	463.667755	465.361484	-260.568903	407.573005	251.840017	-267.219906	374.461393	305.530154	-173.765319	826.183097	106.339603	-295.318624	1044.860923	69.079656	-290.23766	996.663826	51.422105	-390.81325	896.905457	1433.464728	-487.398941	900.851034	1443.109426	-187.516832	988.812228	1367.02153	-318.917326	848.201366	1466.456821	-334.656873	852.50272	1350.373869	-80.304688	775.288131	1300.172821	-85.131158	810.551119	1247.454846	-18.446306	778.655227	1192.594935	19.680556	740.552412	1163.343473	-40.93369	814.784268	1343.213445	-579.188497	756.15027	1297.800576	-534.5587860000001	769.2411530000001	1258.534001	-612.933041	720.592699	1189.562955	-638.657679	695.8625950000001	1165.236007	-572.686279	885.864403	1150.157683	-2.029318	981.465828	1108.826057	-95.154853	960.336362	1053.401467	-56.684985	834.4161779999999	1162.92216	-621.7913610000001	937.1137179999999	1104.291662	-536.800798	919.127358	1064.066411	-590.870916	
191	2.33	903.835463	961.053105	-436.224862	896.703333	949.870354	-195.898781	735.981905	995.041905	-367.666743	729.7244449999999	988.6233099999999	-268.552353	849.4237419999999	709.6951350000001	-135.793463	917.73943	630.379023	-140.89231	867.366342	536.898006	-152.32251	913.009259	770.076355	-478.484636	991.534859	692.395522	-450.607938	969.723825	569.822672	-426.034694	765.833216	401.142392	-226.722758	682.7227329999999	414.03754	-170.316567	578.9363070000001	381.16472	-233.190748	1010.00694	379.606585	-337.775547	944.963493	304.84391	-396.744678	935.5132610000001	201.561369	-314.44478	485.9607	467.889426	-257.412128	432.017584	253.777092	-264.433092	403.208319	305.707063	-168.697244	796.66557	106.633366	-295.506913	1015.278524	67.939954	-290.542036	966.86379	50.966427	-390.930634	896.824582	1427.637327	-487.703426	900.120885	1437.925084	-187.149674	987.78922	1361.600308	-318.162232	849.215356	1463.417681	-335.310628	848.687136	1345.514164	-80.65898300000001	769.450521	1297.300188	-89.253002	800.818303	1243.70268	-21.281695	766.102899	1189.777684	16.229381	729.110474	1161.557474	-45.253204	821.455302	1331.178756	-580.3253549999999	760.300234	1284.831409	-540.812715	779.136293	1245.467079	-616.758259	734.07912	1175.84835	-644.479838	707.128603	1150.850232	-579.482738	871.362435	1140.659101	-1.212054	967.693263	1090.973112	-89.290159	941.657335	1038.029487	-49.204008	848.002135	1151.292018	-621.540623	948.306178	1091.784599	-533.755459	933.588114	1052.762603	-590.667354	
192	2.34	901.34201	958.948889	-436.512839	894.776736	946.9703950000001	-195.706457	733.222056	992.396449	-366.973945	727.677408	986.026403	-268.450716	859.234112	707.3146379999999	-135.65057	932.990606	631.973311	-142.358894	888.988743	535.984132	-152.925094	908.25426	765.8961880000001	-478.783434	983.013103	681.328542	-451.507779	955.650293	562.3013089999999	-425.604365	790.998697	400.720869	-227.461292	708.757959	412.726526	-170.631238	604.294208	381.541547	-232.741206	993.168147	370.502553	-340.044878	924.430737	299.571373	-396.168827	909.434158	197.391938	-313.625391	507.753462	468.260419	-254.215025	459.257177	252.965422	-262.337503	434.35349	302.435193	-164.149562	766.854988	106.95099	-295.543725	985.327942	67.054919	-290.723966	936.761802	50.931295	-390.898683	897.266598	1422.623072	-487.969631	899.405728	1433.653142	-186.88427	986.60642	1356.94252	-317.504466	848.015787	1460.218824	-335.046014	844.3108	1341.69296	-81.295598	764.171038	1295.668407	-93.36822100000001	791.949077	1241.270959	-24.505176	754.323362	1188.183819	12.331648	717.923994	1161.080562	-50.092798	827.1620339999999	1321.280969	-579.459329	764.519919	1272.986737	-545.506435	789.789437	1234.546556	-619.531549	748.794247	1163.608127	-649.55236	719.299888	1137.942474	-585.399734	857.066555	1132.405783	-1.327155	953.2383	1074.00148	-83.87551999999999	921.570379	1024.135475	-42.664964	862.346998	1141.519414	-620.361854	960.51419	1081.290058	-530.638927	949.4640900000001	1043.886453	-589.78408	
193	2.35	898.922952	956.392319	-436.17371	892.933859	945.576667	-194.971641	730.913194	990.817121	-366.914867	725.977818	984.3587669999999	-268.900636	868.66909	706.6281770000001	-135.909145	947.204745	635.675379	-143.625859	909.850517	537.513626	-154.03016	901.327822	760.661328	-479.15401	974.110009	669.81237	-451.939461	941.745754	555.045919	-425.46461	816.6394	401.189329	-227.860213	734.876701	412.324048	-171.04325	630.114513	380.810328	-232.186341	974.047554	363.201199	-340.15114	903.404278	295.465012	-395.826913	882.489107	194.214857	-312.806946	528.984211	466.146209	-251.115616	488.887057	249.275509	-260.640072	466.840076	296.194184	-160.38018	736.775766	107.422606	-295.790273	955.050451	66.662753	-290.94167	906.362121	51.026188	-391.080662	898.196648	1418.740321	-488.270228	898.144056	1430.566969	-186.646987	985.264107	1353.39247	-316.805743	845.3735799999999	1457.269334	-334.173283	839.167406	1339.011058	-82.034211	758.819288	1295.06377	-97.272735	783.577275	1239.773579	-27.89301	743.18749	1187.91595	8.225094	706.995725	1162.117333	-55.191278	831.23551	1313.76114	-577.28419	768.95372	1262.311009	-548.178287	800.628454	1225.929127	-621.310549	764.030676	1153.278548	-653.583723	732.0568029999999	1126.843024	-590.234159	842.952858	1125.667205	-1.91475	938.284954	1058.87808	-79.061314	900.602767	1012.354252	-38.081586	876.910571	1133.733517	-619.05498	973.013683	1073.965095	-527.636524	966.165813	1038.311123	-587.765483	
